<!DOCTYPE svg PUBLIC "-//W3C//DTD SVG 1.1//EN" "http://www.w3.org/Graphics/SVG/1.1/DTD/svg11.dtd">
<!-- Uploaded to: SVG Repo, www.svgrepo.com, Transformed by: SVG Repo Mixer Tools -->
<svg height="256px" width="256px" version="1.1" id="Layer_1" xmlns="http://www.w3.org/2000/svg" xmlns:xlink="http://www.w3.org/1999/xlink" viewBox="-92.16 -92.16 696.32 696.32" xml:space="preserve" fill="#a1a29d" stroke="#a1a29d" stroke-width="0.00512">
<g id="SVGRepo_bgCarrier" stroke-width="0"/>
<g id="SVGRepo_tracerCarrier" stroke-linecap="round" stroke-linejoin="round" stroke="#77767b" stroke-width="40.96"> <circle style="fill:#ffffff;" cx="256" cy="256" r="245.801"/> <polygon style="fill:#303029;" points="196.68,221.752 256,187.504 315.319,221.752 315.319,290.248 256,324.496 196.68,290.248 "/> <path d="M437.02,74.98C388.667,26.628,324.38,0,256,0S123.333,26.628,74.98,74.98S0,187.62,0,256s26.628,132.667,74.98,181.02 S187.62,512,256,512s132.667-26.628,181.02-74.98S512,324.38,512,256S485.372,123.333,437.02,74.98z M480.247,183.727 l-154.729,88.901V30.87C398.697,53.513,456.731,110.934,480.247,183.727z M207.044,285.217v-58.378l48.932-27.992l49.145,28.452 v57.051l-49.87,28.654L207.044,285.217z M305.12,25.564v178.164L96.379,82.878C138.386,44.117,194.471,20.398,256,20.398 C272.841,20.398,289.27,22.189,305.12,25.564z M81.52,97.845l154.039,89.18l-209.6,119.903c-3.63-16.407-5.561-33.445-5.561-50.928 C20.398,195.188,43.559,139.686,81.52,97.845z M31.435,327.294l155.21-88.788v242.673C113.062,458.47,54.764,400.607,31.435,327.294 z M256,491.602c-16.783,0-33.158-1.778-48.956-5.13V308.76l138.718,79.96c1.605,0.925,3.356,1.365,5.084,1.365 c3.527,0,6.958-1.832,8.846-5.107c2.813-4.88,1.137-11.117-3.742-13.93l-80.261-46.264l210.129-120.732 c3.778,16.72,5.783,34.103,5.783,51.948C491.602,385.911,385.911,491.602,256,491.602z"/> <path d="M404.899,399.263l-12.613-7.27c-4.88-2.813-11.116-1.137-13.93,3.743c-2.813,4.88-1.137,11.116,3.743,13.93l12.613,7.27 c1.604,0.925,3.356,1.364,5.083,1.364c3.527,0,6.958-1.832,8.846-5.108C411.455,408.313,409.78,402.077,404.899,399.263z"/> </g>
<g id="SVGRepo_iconCarrier"> <circle style="fill:#ffffff;" cx="256" cy="256" r="245.801"/> <polygon style="fill:#303029;" points="196.68,221.752 256,187.504 315.319,221.752 315.319,290.248 256,324.496 196.68,290.248 "/> <path d="M437.02,74.98C388.667,26.628,324.38,0,256,0S123.333,26.628,74.98,74.98S0,187.62,0,256s26.628,132.667,74.98,181.02 S187.62,512,256,512s132.667-26.628,181.02-74.98S512,324.38,512,256S485.372,123.333,437.02,74.98z M480.247,183.727 l-154.729,88.901V30.87C398.697,53.513,456.731,110.934,480.247,183.727z M207.044,285.217v-58.378l48.932-27.992l49.145,28.452 v57.051l-49.87,28.654L207.044,285.217z M305.12,25.564v178.164L96.379,82.878C138.386,44.117,194.471,20.398,256,20.398 C272.841,20.398,289.27,22.189,305.12,25.564z M81.52,97.845l154.039,89.18l-209.6,119.903c-3.63-16.407-5.561-33.445-5.561-50.928 C20.398,195.188,43.559,139.686,81.52,97.845z M31.435,327.294l155.21-88.788v242.673C113.062,458.47,54.764,400.607,31.435,327.294 z M256,491.602c-16.783,0-33.158-1.778-48.956-5.13V308.76l138.718,79.96c1.605,0.925,3.356,1.365,5.084,1.365 c3.527,0,6.958-1.832,8.846-5.107c2.813-4.88,1.137-11.117-3.742-13.93l-80.261-46.264l210.129-120.732 c3.778,16.72,5.783,34.103,5.783,51.948C491.602,385.911,385.911,491.602,256,491.602z"/> <path d="M404.899,399.263l-12.613-7.27c-4.88-2.813-11.116-1.137-13.93,3.743c-2.813,4.88-1.137,11.116,3.743,13.93l12.613,7.27 c1.604,0.925,3.356,1.364,5.083,1.364c3.527,0,6.958-1.832,8.846-5.108C411.455,408.313,409.78,402.077,404.899,399.263z"/> </g>
</svg>